# xmcd CD database file
#
# Track frame offsets:
#	150
#	13078
#	26301
#	38990
#	51452
#	63124
#	75811
#	87043
#	99198
#	111373
#	123659
#	138007
#
# Disc length: 2287 seconds
#
# Revision: 0
# Processed by: cddbd v1.5.2PL0 Copyright (c) Steve Scherf et al.
# Submitted via: CDex 1.70beta2
#
DISCID=8908ed0c
DTITLE=Ray Charles - The Essentials
DYEAR=2006
DGENRE=Jazz
TTITLE0=Heartbreaker
TTITLE1=Alone in the City
TTITLE2=Can Anyone Ask for More?
TTITLE3=Rockin' Chair Blues
TTITLE4=How Long Blues
TTITLE5=You'll Always Miss the Water (When the Well Runs Dry)
TTITLE6=You Be My Baby
TTITLE7=I've Had My Fun (Goin Down Slow)
TTITLE8=Honey, Honey
TTITLE9=Tell Me How Do You Feel
TTITLE10=What'd I Say
TTITLE11=Georgia On My Mind
EXTD=YEAR: 2006
EXTT0=
EXTT1=
EXTT2=
EXTT3=
EXTT4=
EXTT5=
EXTT6=
EXTT7=
EXTT8=
EXTT9=
EXTT10=
EXTT11=
PLAYORDER=
